<?xml version="1.0" standalone="no"?>
<!DOCTYPE svg PUBLIC "-//W3C//DTD SVG 20010904//EN"
 "http://www.w3.org/TR/2001/REC-SVG-20010904/DTD/svg10.dtd">
<svg version="1.0" xmlns="http://www.w3.org/2000/svg"
 width="128.000000pt" height="128.000000pt" viewBox="0 0 128.000000 128.000000"
 preserveAspectRatio="xMidYMid meet">
<metadata>
Created by potrace 1.11, written by Peter Selinger 2001-2013
</metadata>
<g transform="translate(0.000000,128.000000) scale(0.100000,-0.100000)"
fill="#000000" stroke="none">
<path d="M657 1160 c-60 -15 -136 -58 -187 -106 -144 -135 -168 -370 -55 -530
l35 -49 -34 -34 c-30 -30 -37 -33 -51 -21 -15 12 -28 2 -116 -86 -88 -89 -99
-105 -99 -136 0 -47 40 -88 86 -88 30 0 47 13 135 101 90 90 99 103 86 117
-14 13 -12 19 20 52 l35 38 48 -25 c269 -140 589 42 605 343 9 166 -79 315
-230 390 -63 31 -85 37 -157 40 -45 2 -100 -1 -121 -6z"/>
</g>
</svg>
